<svg xmlns="http://www.w3.org/2000/svg" viewBox="0 0 100 100" width="100" height="100">
  <!-- Background Circle with Gradient -->
  <circle cx="50" cy="50" r="45" fill="url(#chakraGradient)" />
  
  <!-- Moon Silhouette -->
  <path d="M 65 30 A 25 25 0 1 1 35 70 A 20 20 0 1 0 65 30 z" fill="#121212" />
  
  <!-- Stars -->
  <g fill="white">
    <circle cx="25" cy="25" r="1.5" />
    <circle cx="35" cy="15" r="1" />
    <circle cx="60" cy="25" r="1.2" />
    <circle cx="75" cy="35" r="1" />
    <circle cx="80" cy="60" r="1.3" />
    <circle cx="65" cy="80" r="1" />
    <circle cx="30" cy="75" r="1.2" />
    <circle cx="15" cy="55" r="1" />
  </g>
  
  <!-- Chakra Symbols (Simplified) -->
  <g fill="white" opacity="0.7">
    <circle cx="50" cy="22" r="2" /> <!-- Crown -->
    <circle cx="50" cy="32" r="2" /> <!-- Third Eye -->
    <circle cx="50" cy="42" r="2" /> <!-- Throat -->
    <circle cx="50" cy="52" r="2" /> <!-- Heart -->
    <circle cx="50" cy="62" r="2" /> <!-- Solar Plexus -->
    <circle cx="50" cy="72" r="2" /> <!-- Sacral -->
    <circle cx="50" cy="82" r="2" /> <!-- Root -->
  </g>
  
  <!-- Gradient Definition for Background -->
  <defs>
    <linearGradient id="chakraGradient" x1="0%" y1="0%" x2="100%" y2="100%">
      <stop offset="0%" stop-color="#ff0000" /> <!-- Root - Red -->
      <stop offset="16.67%" stop-color="#ff8000" /> <!-- Sacral - Orange -->
      <stop offset="33.33%" stop-color="#ffff00" /> <!-- Solar Plexus - Yellow -->
      <stop offset="50%" stop-color="#00ff00" /> <!-- Heart - Green -->
      <stop offset="66.67%" stop-color="#00ffff" /> <!-- Throat - Blue -->
      <stop offset="83.33%" stop-color="#0000ff" /> <!-- Third Eye - Indigo -->
      <stop offset="100%" stop-color="#8000ff" /> <!-- Crown - Violet -->
    </linearGradient>
  </defs>
</svg>
