<?xml version="1.0" encoding="UTF-8" standalone="no"?>
<svg xmlns="http://www.w3.org/2000/svg" width="120" height="120" viewBox="0 0 120 120">
  <!-- Background Galaxy Circle -->
  <defs>
    <radialGradient id="galaxy" cx="50%" cy="50%" r="50%" fx="50%" fy="50%">
      <stop offset="0%" stop-color="#9C27B0" stop-opacity="0.9" />
      <stop offset="45%" stop-color="#673AB7" stop-opacity="0.8" />
      <stop offset="70%" stop-color="#3F51B5" stop-opacity="0.8" />
      <stop offset="90%" stop-color="#2196F3" stop-opacity="0.9" />
      <stop offset="100%" stop-color="#03A9F4" stop-opacity="1" />
    </radialGradient>
    
    <!-- Glow effect for celestial elements -->
    <filter id="glow" x="-20%" y="-20%" width="140%" height="140%">
      <feGaussianBlur stdDeviation="2" result="blur" />
      <feComposite in="SourceGraphic" in2="blur" operator="over" />
    </filter>
  </defs>
  
  <!-- Main Circle (Galaxy Background) -->
  <circle cx="60" cy="60" r="56" fill="url(#galaxy)" />
  
  <!-- Outer Ring (Seven Chakras Colors) -->
  <circle cx="60" cy="60" r="56" fill="none" stroke="#FFF" stroke-width="1" stroke-opacity="0.6" />
  
  <!-- Chakra Dots on Outer Ring -->
  <circle cx="60" cy="4" r="3" fill="#FF0000" filter="url(#glow)" /> <!-- Root Chakra (Red) -->
  <circle cx="99.6" cy="27.9" r="3" fill="#FF7F00" filter="url(#glow)" /> <!-- Sacral Chakra (Orange) -->
  <circle cx="99.6" cy="92.1" r="3" fill="#FFFF00" filter="url(#glow)" /> <!-- Solar Plexus Chakra (Yellow) -->
  <circle cx="60" cy="116" r="3" fill="#00FF00" filter="url(#glow)" /> <!-- Heart Chakra (Green) -->
  <circle cx="20.4" cy="92.1" r="3" fill="#0000FF" filter="url(#glow)" /> <!-- Throat Chakra (Blue) -->
  <circle cx="20.4" cy="27.9" r="3" fill="#4B0082" filter="url(#glow)" /> <!-- Third Eye Chakra (Indigo) -->
  <circle cx="60" cy="60" r="3" fill="#9400D3" filter="url(#glow)" /> <!-- Crown Chakra (Violet) -->
  
  <!-- Moon Symbol -->
  <path d="M65,35 a20,20 0 1,0 0,40 a15,15 0 1,1 0,-40" fill="#E0E0E0" filter="url(#glow)" />
  
  <!-- Stars -->
  <circle cx="40" cy="30" r="1.5" fill="white" filter="url(#glow)" />
  <circle cx="85" cy="45" r="1" fill="white" filter="url(#glow)" />
  <circle cx="75" cy="75" r="1.2" fill="white" filter="url(#glow)" />
  <circle cx="35" cy="65" r="1" fill="white" filter="url(#glow)" />
  <circle cx="50" cy="85" r="1.3" fill="white" filter="url(#glow)" />
  <circle cx="90" cy="65" r="1" fill="white" filter="url(#glow)" />
  
  <!-- Additional Star Bursts -->
  <path d="M30,45 l2,-2 l-2,-2 l2,-2 l-2,2 l-2,-2 l2,2 l-2,2 z" fill="white" filter="url(#glow)" />
  <path d="M80,25 l1.5,-1.5 l-1.5,-1.5 l1.5,-1.5 l-1.5,1.5 l-1.5,-1.5 l1.5,1.5 l-1.5,1.5 z" fill="white" filter="url(#glow)" />
  <path d="M85,85 l2,-2 l-2,-2 l2,-2 l-2,2 l-2,-2 l2,2 l-2,2 z" fill="white" filter="url(#glow)" />
</svg>